<mxfile host="app.diagrams.net" agent="Mozilla/5.0 (Windows NT 10.0; Win64; x64; rv:142.0) Gecko/20100101 Firefox/142.0" version="28.1.2">
  <diagram name="Page-1" id="npBIhtGl461E2MBbq7YV">
    <mxGraphModel dx="1425" dy="791" grid="1" gridSize="10" guides="1" tooltips="1" connect="1" arrows="1" fold="1" page="1" pageScale="1" pageWidth="827" pageHeight="1169" math="0" shadow="0">
      <root>
        <mxCell id="0" />
        <mxCell id="1" parent="0" />
        <mxCell id="ZZesttGwEtAWEYn74NZ--7" value="&lt;div&gt;ProtocolId&lt;/div&gt;&lt;div&gt;&lt;b&gt;4 Bytes&lt;/b&gt;&lt;/div&gt;" style="rounded=0;whiteSpace=wrap;html=1;rotation=0;" vertex="1" parent="1">
          <mxGeometry x="204" y="110" width="412" height="60" as="geometry" />
        </mxCell>
        <mxCell id="ZZesttGwEtAWEYn74NZ--8" value="&lt;div&gt;StructureSize&lt;/div&gt;&lt;div&gt;&lt;b&gt;2 Bytes&lt;/b&gt;&lt;/div&gt;" style="rounded=0;whiteSpace=wrap;html=1;" vertex="1" parent="1">
          <mxGeometry x="204" y="170" width="206" height="60" as="geometry" />
        </mxCell>
        <mxCell id="ZZesttGwEtAWEYn74NZ--11" value="&lt;div&gt;CreditCharge&lt;/div&gt;&lt;div&gt;&lt;b&gt;2 Bytes&lt;/b&gt;&lt;/div&gt;" style="rounded=0;whiteSpace=wrap;html=1;" vertex="1" parent="1">
          <mxGeometry x="410" y="170" width="206" height="60" as="geometry" />
        </mxCell>
        <mxCell id="ZZesttGwEtAWEYn74NZ--12" value="&lt;div&gt;(ChannelSequnce, Reserved)/Status&lt;/div&gt;&lt;div&gt;&lt;b&gt;4 Bytes&lt;/b&gt;&lt;/div&gt;" style="rounded=0;whiteSpace=wrap;html=1;rotation=0;" vertex="1" parent="1">
          <mxGeometry x="204" y="230" width="412" height="60" as="geometry" />
        </mxCell>
        <mxCell id="ZZesttGwEtAWEYn74NZ--13" value="&lt;div&gt;Command&lt;/div&gt;&lt;div&gt;&lt;b&gt;2 Bytes&lt;/b&gt;&lt;/div&gt;" style="rounded=0;whiteSpace=wrap;html=1;" vertex="1" parent="1">
          <mxGeometry x="204" y="290" width="206" height="60" as="geometry" />
        </mxCell>
        <mxCell id="ZZesttGwEtAWEYn74NZ--14" value="&lt;div&gt;CreditRequest/Response&lt;/div&gt;&lt;div&gt;&lt;b&gt;2 Bytes&lt;/b&gt;&lt;/div&gt;" style="rounded=0;whiteSpace=wrap;html=1;" vertex="1" parent="1">
          <mxGeometry x="410" y="290" width="206" height="60" as="geometry" />
        </mxCell>
        <mxCell id="ZZesttGwEtAWEYn74NZ--15" value="&lt;div&gt;Flags&lt;/div&gt;&lt;div&gt;&lt;b&gt;4 Bytes&lt;/b&gt;&lt;/div&gt;" style="rounded=0;whiteSpace=wrap;html=1;rotation=0;" vertex="1" parent="1">
          <mxGeometry x="204" y="350" width="412" height="60" as="geometry" />
        </mxCell>
        <mxCell id="ZZesttGwEtAWEYn74NZ--16" value="&lt;div&gt;NextCommand&lt;/div&gt;&lt;div&gt;&lt;b&gt;4 Bytes&lt;/b&gt;&lt;/div&gt;" style="rounded=0;whiteSpace=wrap;html=1;rotation=0;" vertex="1" parent="1">
          <mxGeometry x="204" y="410" width="412" height="60" as="geometry" />
        </mxCell>
        <mxCell id="ZZesttGwEtAWEYn74NZ--17" value="&lt;div&gt;MessageId&lt;/div&gt;&lt;div&gt;&lt;b&gt;8 Bytes&lt;/b&gt;&lt;/div&gt;" style="rounded=0;whiteSpace=wrap;html=1;rotation=0;" vertex="1" parent="1">
          <mxGeometry x="204" y="470" width="412" height="60" as="geometry" />
        </mxCell>
      </root>
    </mxGraphModel>
  </diagram>
</mxfile>
